#
#
#

mtllib link.mtl


#
#  Mesh
#
g  Mesh


#
#  Mesh_Material
#
usemtl  Mesh_Material

v 1.000000 1.000000 1.000000
v -1.000000 1.000000 1.000000
v -1.000000 -1.000000 1.000000
v 1.000000 -1.000000 1.000000
v 1.000000 -1.000000 -1.000000
v -1.000000 -1.000000 -1.000000
v -1.000000 1.000000 -1.000000
v 1.000000 1.000000 -1.000000
v 0.000000 1.037719 0.997041
v 0.000000 -0.000000 3.072480
v 0.202449 1.017780 0.997041
v 0.397118 0.958728 0.997041
v 0.576526 0.862832 0.997041
v 0.733778 0.733778 0.997041
v 0.862832 0.576526 0.997041
v 0.958728 0.397118 0.997041
v 1.017780 0.202449 0.997041
v 1.037719 -0.000000 0.997041
v 1.017780 -0.202449 0.997041
v 0.958728 -0.397118 0.997041
v 0.862832 -0.576526 0.997041
v 0.733778 -0.733778 0.997041
v 0.576526 -0.862832 0.997041
v 0.397118 -0.958728 0.997041
v 0.202449 -1.017780 0.997041
v 0.000000 -1.037719 0.997041
v -0.202449 -1.017780 0.997041
v -0.397118 -0.958728 0.997041
v -0.576526 -0.862832 0.997041
v -0.733778 -0.733779 0.997041
v -0.862832 -0.576526 0.997041
v -0.958728 -0.397118 0.997041
v -1.017780 -0.202449 0.997041
v -1.037719 -0.000000 0.997041
v -1.017780 0.202449 0.997041
v -0.958728 0.397118 0.997041
v -0.862832 0.576526 0.997041
v -0.733779 0.733778 0.997041
v -0.576526 0.862832 0.997041
v -0.397118 0.958728 0.997041
v -0.202449 1.017780 0.997041
vn 0.000000 -0.000000 1.000000
vn 0.000000 -1.000000 -0.000000
vn -1.000000 0.000000 0.000000
vn -0.000000 0.000000 -1.000000
vn 1.000000 0.000000 0.000000
vn -0.000000 1.000000 0.000000
vn 0.087787 0.890974 0.445487
vn 0.259885 0.856744 0.445476
vn 0.422056 0.789572 0.445471
vn 0.567960 0.692074 0.445483
vn 0.692074 0.567960 0.445483
vn 0.789572 0.422056 0.445471
vn 0.856744 0.259885 0.445476
vn 0.890974 0.087787 0.445487
vn 0.890974 -0.087787 0.445487
vn 0.856744 -0.259885 0.445476
vn 0.789572 -0.422056 0.445471
vn 0.692074 -0.567960 0.445483
vn 0.567960 -0.692074 0.445483
vn 0.422056 -0.789572 0.445471
vn 0.259885 -0.856744 0.445476
vn 0.087787 -0.890974 0.445487
vn -0.087787 -0.890974 0.445487
vn -0.259885 -0.856744 0.445476
vn -0.422056 -0.789572 0.445471
vn -0.567960 -0.692074 0.445483
vn -0.692074 -0.567960 0.445483
vn -0.789572 -0.422056 0.445471
vn -0.856744 -0.259885 0.445476
vn -0.890974 -0.087787 0.445487
vn -0.890974 0.087787 0.445487
vn -0.856744 0.259885 0.445476
vn -0.789572 0.422056 0.445471
vn -0.692074 0.567960 0.445483
vn -0.567960 0.692074 0.445483
vn -0.422056 0.789572 0.445471
vn -0.259885 0.856744 0.445476
vn -0.087787 0.890974 0.445487
vt 0.625000 0.500000
vt 0.875000 0.500000
vt 0.875000 0.750000
vt 0.625000 0.750000
vt 0.375000 0.750000
vt 0.625000 1.000000
vt 0.375000 1.000000
vt 0.375000 0.000000
vt 0.625000 0.000000
vt 0.625000 0.250000
vt 0.375000 0.250000
vt 0.125000 0.500000
vt 0.375000 0.500000
vt 0.125000 0.750000
vt 0.250000 0.490000
vt 0.250000 0.250000
vt 0.296822 0.485388
vt 0.341844 0.471731
vt 0.383337 0.449553
vt 0.419706 0.419706
vt 0.449553 0.383337
vt 0.471731 0.341844
vt 0.485388 0.296822
vt 0.490000 0.250000
vt 0.485388 0.203178
vt 0.471731 0.158156
vt 0.449553 0.116663
vt 0.419706 0.080294
vt 0.383337 0.050447
vt 0.341844 0.028269
vt 0.296822 0.014612
vt 0.250000 0.010000
vt 0.203178 0.014612
vt 0.158156 0.028269
vt 0.116663 0.050447
vt 0.080294 0.080294
vt 0.050447 0.116663
vt 0.028269 0.158156
vt 0.014612 0.203178
vt 0.010000 0.250000
vt 0.014612 0.296822
vt 0.028269 0.341844
vt 0.050447 0.383337
vt 0.080294 0.419706
vt 0.116663 0.449553
vt 0.158156 0.471731
vt 0.750000 0.490000
vt 0.796822 0.485388
vt 0.841844 0.471731
vt 0.883337 0.449553
vt 0.919706 0.419706
vt 0.949553 0.383337
vt 0.971731 0.341844
vt 0.985388 0.296822
vt 0.990000 0.250000
vt 0.985388 0.203178
vt 0.971731 0.158156
vt 0.949553 0.116663
vt 0.919706 0.080294
vt 0.883337 0.050447
vt 0.841844 0.028269
vt 0.796822 0.014612
vt 0.750000 0.010000
vt 0.703178 0.014612
vt 0.658156 0.028269
vt 0.616663 0.050447
vt 0.580294 0.080294
vt 0.550447 0.116663
vt 0.528269 0.158156
vt 0.514612 0.203178
vt 0.510000 0.250000
vt 0.514612 0.296822
vt 0.528269 0.341844
vt 0.550447 0.383337
vt 0.580294 0.419706
vt 0.616663 0.449553
vt 0.658156 0.471731
vt 0.703178 0.485388
vt 0.203178 0.485388
f 1/1/1 2/2/1 3/3/1 4/4/1
f 5/5/2 4/4/2 3/6/2 6/7/2
f 6/8/3 3/9/3 2/10/3 7/11/3
f 7/12/4 8/13/4 5/5/4 6/14/4
f 8/13/5 1/1/5 4/4/5 5/5/5
f 7/11/6 2/10/6 1/1/6 8/13/6
f 9/15/7 10/16/7 11/17/7
f 11/17/8 10/16/8 12/18/8
f 12/18/9 10/16/9 13/19/9
f 13/19/10 10/16/10 14/20/10
f 14/20/11 10/16/11 15/21/11
f 15/21/12 10/16/12 16/22/12
f 16/22/13 10/16/13 17/23/13
f 17/23/14 10/16/14 18/24/14
f 18/24/15 10/16/15 19/25/15
f 19/25/16 10/16/16 20/26/16
f 20/26/17 10/16/17 21/27/17
f 21/27/18 10/16/18 22/28/18
f 22/28/19 10/16/19 23/29/19
f 23/29/20 10/16/20 24/30/20
f 24/30/21 10/16/21 25/31/21
f 25/31/22 10/16/22 26/32/22
f 26/32/23 10/16/23 27/33/23
f 27/33/24 10/16/24 28/34/24
f 28/34/25 10/16/25 29/35/25
f 29/35/26 10/16/26 30/36/26
f 30/36/27 10/16/27 31/37/27
f 31/37/28 10/16/28 32/38/28
f 32/38/29 10/16/29 33/39/29
f 33/39/30 10/16/30 34/40/30
f 34/40/31 10/16/31 35/41/31
f 35/41/32 10/16/32 36/42/32
f 36/42/33 10/16/33 37/43/33
f 37/43/34 10/16/34 38/44/34
f 38/44/35 10/16/35 39/45/35
f 39/45/36 10/16/36 40/46/36
f 9/47/4 11/48/4 12/49/4 13/50/4 14/51/4 15/52/4 16/53/4 17/54/4 18/55/4 19/56/4 20/57/4 21/58/4 22/59/4 23/60/4 24/61/4 25/62/4 26/63/4 27/64/4 28/65/4 29/66/4 30/67/4 31/68/4 32/69/4 33/70/4 34/71/4 35/72/4 36/73/4 37/74/4 38/75/4 39/76/4 40/77/4 41/78/4
f 40/46/37 10/16/37 41/79/37
f 41/79/38 10/16/38 9/15/38
